<svg width="14" height="25" viewBox="0 0 14 25" fill="none" xmlns="http://www.w3.org/2000/svg">
<path d="M9.18731 3.74712C10.424 3.99757 11.4386 4.50471 12.3094 5.2347C12.5562 5.4416 12.5854 5.81417 12.3767 6.05951L11.314 7.30901C11.1164 7.54137 10.7736 7.58065 10.5265 7.40178C9.56995 6.70929 8.57855 6.37901 7.44019 6.37901C6.13252 6.37901 5.3092 6.93603 5.3092 7.92884C5.3092 8.94584 5.91459 9.35754 8.40891 10.1325C11.4601 11.1012 13.2038 12.3846 13.2038 15.339C13.2038 17.6819 11.7221 19.4802 9.15178 20.1551C8.89814 20.2217 8.72363 20.4545 8.72363 20.7168V23.4976C8.72363 23.8199 8.46234 24.0811 8.14008 24.0811H6.52233C6.20002 24.0811 5.93878 23.8198 5.93878 23.4976V20.9239C5.93878 20.6338 5.72583 20.3847 5.4382 20.3469C3.61256 20.1072 2.1938 19.4157 1.13072 18.5282C0.877548 18.3169 0.667595 18.1419 0.889548 17.8979L2.34206 16.3019C2.66198 15.9504 2.81644 16.1254 3.05592 16.3106C4.09613 17.115 5.27714 17.567 6.6653 17.567C8.23931 17.567 9.18384 16.8406 9.18384 15.6296C9.18384 14.4673 8.6025 13.9345 6.27783 13.208C2.64539 12.0941 1.36186 10.5927 1.36186 8.21942C1.36186 5.88968 3.02067 4.24929 5.48494 3.725C5.75109 3.66837 5.93878 3.734 5.93878 3.46184V0.33823C5.93878 0.0159173 6.20006 0.0826205 6.52233 0.0826205H8.14008C8.46239 0.0826205 8.72363 0.343902 8.72363 0.666167V3.17764C8.72363 3.45335 8.91708 3.69242 9.18731 3.74712Z" fill="#ABAFD1"/>
</svg>
